<svg xmlns="http://www.w3.org/2000/svg" viewBox="0 0 512 512"><path d="M292 210h-72c-5.523 0-10 4.478-10 10v72c0 5.522 4.477 10 10 10h72c5.523 0 10-4.478 10-10v-72c0-5.522-4.477-10-10-10zm-10 72h-52v-52h52v52zM478 54c-18.748 0-34 15.252-34 34s15.252 34 34 34 34-15.252 34-34-15.252-34-34-34zm0 48c-7.72 0-14-6.28-14-14s6.28-14 14-14 14 6.28 14 14-6.28 14-14 14zM426.59 80.9a10.08 10.08 0 00-7.07-2.93c-2.64 0-5.22 1.07-7.08 2.93a10.066 10.066 0 00-2.92 7.07c0 2.63 1.06 5.21 2.92 7.07a10.103 10.103 0 007.08 2.93c2.63 0 5.21-1.07 7.07-2.93 1.86-1.86 2.93-4.44 2.93-7.07s-1.07-5.21-2.93-7.07z"/><path d="M415.534 266c4.281 13.883 17.229 24 32.497 24 18.748 0 34-15.252 34-34s-15.253-34-34-34c-15.269 0-28.217 10.117-32.497 24H354v-78c0-5.522-4.477-10-10-10h-16V97.97h56.022c5.523 0 10-4.478 10-10s-4.477-10-10-10H318c-5.523 0-10 4.478-10 10V158h-42V96.467c13.882-4.281 24-17.228 24-32.497 0-18.748-15.252-34-34-34s-34 15.252-34 34c0 15.269 10.118 28.217 24 32.497V158h-78c-5.523 0-10 4.478-10 10v16H97.969V66.506C111.867 62.235 122 49.28 122 34c0-18.748-15.252-34-34-34S54 15.252 54 34c0 15.258 10.103 28.198 23.969 32.488V194c0 5.522 4.477 10 10 10H158v42H96.466c-4.281-13.883-17.229-24-32.497-24-18.748 0-34 15.252-34 34s15.252 34 34 34c15.269 0 28.217-10.117 32.497-24H158v78c0 5.522 4.477 10 10 10h16v60.03h-56.022c-5.523 0-10 4.478-10 10s4.477 10 10 10H194c5.523 0 10-4.478 10-10V354h42v61.533c-13.882 4.281-24 17.228-24 32.497 0 18.748 15.252 34 34 34s34-15.252 34-34c0-15.269-10.118-28.217-24-32.497V354h78c5.523 0 10-4.478 10-10v-16h60.031v117.494C400.133 449.765 390 462.72 390 478c0 18.748 15.252 34 34 34s34-15.252 34-34c0-15.258-10.103-28.198-23.969-32.488V318c0-5.522-4.477-10-10-10H354v-42h61.534zm32.497-24c7.72 0 14 6.28 14 14s-6.281 14-14 14c-7.72 0-14-6.28-14-14s6.28-14 14-14zM88 48c-7.72 0-14-6.28-14-14s6.28-14 14-14 14 6.28 14 14-6.28 14-14 14zM63.969 270c-7.72 0-14-6.28-14-14s6.28-14 14-14 14 6.28 14 14-6.28 14-14 14zM242 63.97c0-7.72 6.28-14 14-14s14 6.28 14 14-6.28 14-14 14-14-6.28-14-14zm28 384.06c0 7.72-6.28 14-14 14s-14-6.28-14-14 6.28-14 14-14 14 6.28 14 14zM334 334H178V178h156v156zm90 130c7.72 0 14 6.28 14 14s-6.28 14-14 14-14-6.28-14-14 6.28-14 14-14zM34 390c-18.748 0-34 15.252-34 34s15.252 34 34 34 34-15.252 34-34-15.252-34-34-34zm0 48c-7.72 0-14-6.28-14-14s6.28-14 14-14 14 6.28 14 14-6.28 14-14 14zM99.57 416.96c-1.86-1.86-4.44-2.93-7.07-2.93s-5.21 1.069-7.07 2.93a10.072 10.072 0 00-2.93 7.07c0 2.63 1.07 5.21 2.93 7.069 1.86 1.86 4.44 2.931 7.07 2.931s5.21-1.07 7.07-2.931a10.072 10.072 0 002.93-7.069c0-2.631-1.07-5.211-2.93-7.07z"/></svg>